<?xml version="1.0" encoding="UTF-8" standalone="no"?>
<!DOCTYPE svg PUBLIC "-//W3C//DTD SVG 1.1//EN"
 "http://www.w3.org/Graphics/SVG/1.1/DTD/svg11.dtd">
<!-- Generated by graphviz version 13.1.2 (20250808.2320)
 -->
<!-- Title: backedge_nested_same_pipe_prune Pages: 1 -->
<svg width="1590pt" height="1157pt"
 viewBox="0.00 0.00 1590.00 1157.00" xmlns="http://www.w3.org/2000/svg" xmlns:xlink="http://www.w3.org/1999/xlink">
<g id="graph0" class="graph" transform="scale(1 1) rotate(0) translate(14.4 1142.4)">
<title>backedge_nested_same_pipe_prune</title>
<polygon fill="white" stroke="none" points="-14.4,14.4 -14.4,-1142.4 1575.9,-1142.4 1575.9,14.4 -14.4,14.4"/>
<!-- n0 -->
<g id="node1" class="node">
<title>n0</title>
<path fill="#dcebfa" stroke="#59636e" d="M100.75,-822.25C100.75,-822.25 12,-822.25 12,-822.25 6,-822.25 0,-816.25 0,-810.25 0,-810.25 0,-797.75 0,-797.75 0,-791.75 6,-785.75 12,-785.75 12,-785.75 100.75,-785.75 100.75,-785.75 106.75,-785.75 112.75,-791.75 112.75,-797.75 112.75,-797.75 112.75,-810.25 112.75,-810.25 112.75,-816.25 106.75,-822.25 100.75,-822.25"/>
<text xml:space="preserve" text-anchor="middle" x="56.38" y="-808.75" font-family="DejaVu Sans" font-size="10.00">0: pto.tmov</text>
<text xml:space="preserve" text-anchor="middle" x="56.38" y="-794.5" font-family="DejaVu Sans" font-size="10.00">PIPE_MTE1 / transfer</text>
</g>
<!-- n2 -->
<g id="node3" class="node">
<title>n2</title>
<path fill="#fde7c8" stroke="#59636e" d="M297.25,-588.25C297.25,-588.25 221.25,-588.25 221.25,-588.25 215.25,-588.25 209.25,-582.25 209.25,-576.25 209.25,-576.25 209.25,-563.75 209.25,-563.75 209.25,-557.75 215.25,-551.75 221.25,-551.75 221.25,-551.75 297.25,-551.75 297.25,-551.75 303.25,-551.75 309.25,-557.75 309.25,-563.75 309.25,-563.75 309.25,-576.25 309.25,-576.25 309.25,-582.25 303.25,-588.25 297.25,-588.25"/>
<text xml:space="preserve" text-anchor="middle" x="259.25" y="-574.75" font-family="DejaVu Sans" font-size="10.00">2: pto.tmatmul</text>
<text xml:space="preserve" text-anchor="middle" x="259.25" y="-560.5" font-family="DejaVu Sans" font-size="10.00">PIPE_M / compute</text>
</g>
<!-- n0&#45;&gt;n2 -->
<g id="edge1" class="edge">
<title>n0&#45;&gt;n2</title>
<path fill="none" stroke="#2e7d32" d="M73.37,-785.26C89.58,-766.27 115.38,-736.07 137.75,-710 172.35,-669.67 212.65,-622.89 236.77,-594.91"/>
<polygon fill="#2e7d32" stroke="#2e7d32" points="238.54,-596.6 241.26,-589.7 234.83,-593.4 238.54,-596.6"/>
<text xml:space="preserve" text-anchor="middle" x="161" y="-714.4" font-family="DejaVu Sans" font-size="8.00" fill="#2e7d32">memory&#45;raw</text>
</g>
<!-- n3 -->
<g id="node4" class="node">
<title>n3</title>
<path fill="#dcebfa" stroke="#59636e" d="M496,-723.25C496,-723.25 417.75,-723.25 417.75,-723.25 411.75,-723.25 405.75,-717.25 405.75,-711.25 405.75,-711.25 405.75,-698.75 405.75,-698.75 405.75,-692.75 411.75,-686.75 417.75,-686.75 417.75,-686.75 496,-686.75 496,-686.75 502,-686.75 508,-692.75 508,-698.75 508,-698.75 508,-711.25 508,-711.25 508,-717.25 502,-723.25 496,-723.25"/>
<text xml:space="preserve" text-anchor="middle" x="456.88" y="-709.75" font-family="DejaVu Sans" font-size="10.00">3: pto.tmov</text>
<text xml:space="preserve" text-anchor="middle" x="456.88" y="-695.5" font-family="DejaVu Sans" font-size="10.00">PIPE_FIX / transfer</text>
</g>
<!-- n0&#45;&gt;n3 -->
<g id="edge2" class="edge">
<title>n0&#45;&gt;n3</title>
<path fill="none" stroke="#b26a00" d="M113.2,-790.13C188.23,-771.49 320.96,-738.52 397.34,-719.54"/>
<polygon fill="#b26a00" stroke="#b26a00" points="397.79,-721.96 403.99,-717.89 396.61,-717.2 397.79,-721.96"/>
<text xml:space="preserve" text-anchor="middle" x="259.25" y="-770.36" font-family="DejaVu Sans" font-size="8.00" fill="#b26a00">memory&#45;war</text>
</g>
<!-- n5 -->
<g id="node6" class="node">
<title>n5</title>
<path fill="#dcebfa" stroke="#59636e" d="M685,-555.25C685,-555.25 596.25,-555.25 596.25,-555.25 590.25,-555.25 584.25,-549.25 584.25,-543.25 584.25,-543.25 584.25,-530.75 584.25,-530.75 584.25,-524.75 590.25,-518.75 596.25,-518.75 596.25,-518.75 685,-518.75 685,-518.75 691,-518.75 697,-524.75 697,-530.75 697,-530.75 697,-543.25 697,-543.25 697,-549.25 691,-555.25 685,-555.25"/>
<text xml:space="preserve" text-anchor="middle" x="640.62" y="-541.75" font-family="DejaVu Sans" font-size="10.00">5: pto.tmov</text>
<text xml:space="preserve" text-anchor="middle" x="640.62" y="-527.5" font-family="DejaVu Sans" font-size="10.00">PIPE_MTE1 / transfer</text>
</g>
<!-- n0&#45;&gt;n5 -->
<g id="edge3" class="edge">
<title>n0&#45;&gt;n5</title>
<path fill="none" stroke="#6b5ca5" d="M97.87,-785.28C128.4,-771.25 171.34,-751.68 209.25,-735 285.08,-701.64 305.32,-696.24 380.75,-662 456.61,-627.56 543.61,-584.89 594.97,-559.36"/>
<polygon fill="#6b5ca5" stroke="#6b5ca5" points="596.06,-561.55 601.23,-556.24 593.88,-557.17 596.06,-561.55"/>
<text xml:space="preserve" text-anchor="middle" x="357.5" y="-686.75" font-family="DejaVu Sans" font-size="8.00" fill="#6b5ca5">control</text>
</g>
<!-- n6 -->
<g id="node7" class="node">
<title>n6</title>
<path fill="#dcebfa" stroke="#59636e" d="M1262.12,-364.25C1262.12,-364.25 1173.38,-364.25 1173.38,-364.25 1167.38,-364.25 1161.38,-358.25 1161.38,-352.25 1161.38,-352.25 1161.38,-339.75 1161.38,-339.75 1161.38,-333.75 1167.38,-327.75 1173.38,-327.75 1173.38,-327.75 1262.12,-327.75 1262.12,-327.75 1268.12,-327.75 1274.12,-333.75 1274.12,-339.75 1274.12,-339.75 1274.12,-352.25 1274.12,-352.25 1274.12,-358.25 1268.12,-364.25 1262.12,-364.25"/>
<text xml:space="preserve" text-anchor="middle" x="1217.75" y="-350.75" font-family="DejaVu Sans" font-size="10.00">6: pto.tmov</text>
<text xml:space="preserve" text-anchor="middle" x="1217.75" y="-336.5" font-family="DejaVu Sans" font-size="10.00">PIPE_MTE1 / transfer</text>
</g>
<!-- n0&#45;&gt;n6 -->
<g id="edge4" class="edge">
<title>n0&#45;&gt;n6</title>
<path fill="none" stroke="#6b5ca5" d="M58.36,-785.29C62.13,-723.21 78.55,-519.08 137.75,-363 192,-219.96 257.27,-183.82 405.75,-147 556.47,-109.62 908.39,-153.76 987.75,-181 1073.32,-210.37 1154.57,-283.2 1193.23,-321.52"/>
<polygon fill="#6b5ca5" stroke="#6b5ca5" points="1191.31,-323.07 1197.99,-326.29 1194.78,-319.61 1191.31,-323.07"/>
<text xml:space="preserve" text-anchor="middle" x="546.12" y="-137.37" font-family="DejaVu Sans" font-size="8.00" fill="#6b5ca5">control</text>
</g>
<!-- n7 -->
<g id="node8" class="node">
<title>n7</title>
<path fill="#fde7c8" stroke="#59636e" d="M965.38,-516.25C965.38,-516.25 889.38,-516.25 889.38,-516.25 883.38,-516.25 877.38,-510.25 877.38,-504.25 877.38,-504.25 877.38,-491.75 877.38,-491.75 877.38,-485.75 883.38,-479.75 889.38,-479.75 889.38,-479.75 965.38,-479.75 965.38,-479.75 971.38,-479.75 977.38,-485.75 977.38,-491.75 977.38,-491.75 977.38,-504.25 977.38,-504.25 977.38,-510.25 971.38,-516.25 965.38,-516.25"/>
<text xml:space="preserve" text-anchor="middle" x="927.38" y="-502.75" font-family="DejaVu Sans" font-size="10.00">7: pto.tmatmul</text>
<text xml:space="preserve" text-anchor="middle" x="927.38" y="-488.5" font-family="DejaVu Sans" font-size="10.00">PIPE_M / compute</text>
</g>
<!-- n0&#45;&gt;n7 -->
<g id="edge5" class="edge">
<title>n0&#45;&gt;n7</title>
<path fill="none" stroke="#6b5ca5" d="M83.21,-822.66C112.22,-842.37 161.52,-872.2 209.25,-884 252.4,-894.67 265.68,-892.77 309.25,-884 439.37,-857.81 742.25,-701.56 842,-614 843.04,-613.09 883.36,-557.46 907.88,-523.58"/>
<polygon fill="#6b5ca5" stroke="#6b5ca5" points="909.84,-525.04 911.96,-517.93 905.87,-522.16 909.84,-525.04"/>
<text xml:space="preserve" text-anchor="middle" x="456.88" y="-857.42" font-family="DejaVu Sans" font-size="8.00" fill="#6b5ca5">control</text>
</g>
<!-- n8 -->
<g id="node9" class="node">
<title>n8</title>
<path fill="#dcebfa" stroke="#59636e" d="M1538.75,-462.25C1538.75,-462.25 1460.5,-462.25 1460.5,-462.25 1454.5,-462.25 1448.5,-456.25 1448.5,-450.25 1448.5,-450.25 1448.5,-437.75 1448.5,-437.75 1448.5,-431.75 1454.5,-425.75 1460.5,-425.75 1460.5,-425.75 1538.75,-425.75 1538.75,-425.75 1544.75,-425.75 1550.75,-431.75 1550.75,-437.75 1550.75,-437.75 1550.75,-450.25 1550.75,-450.25 1550.75,-456.25 1544.75,-462.25 1538.75,-462.25"/>
<text xml:space="preserve" text-anchor="middle" x="1499.62" y="-448.75" font-family="DejaVu Sans" font-size="10.00">8: pto.tmov</text>
<text xml:space="preserve" text-anchor="middle" x="1499.62" y="-434.5" font-family="DejaVu Sans" font-size="10.00">PIPE_FIX / transfer</text>
</g>
<!-- n0&#45;&gt;n8 -->
<g id="edge6" class="edge">
<title>n0&#45;&gt;n8</title>
<path fill="none" stroke="#6b5ca5" d="M60.06,-822.58C70.89,-889.75 117.81,-1116 258.25,-1116 258.25,-1116 258.25,-1116 1218.75,-1116 1387.97,-1116 1359.27,-951.56 1423.5,-795 1470.73,-679.88 1489.99,-530.8 1496.17,-470.77"/>
<polygon fill="#6b5ca5" stroke="#6b5ca5" points="1498.58,-471.29 1496.84,-464.09 1493.71,-470.81 1498.58,-471.29"/>
<text xml:space="preserve" text-anchor="middle" x="640.62" y="-1120.4" font-family="DejaVu Sans" font-size="8.00" fill="#6b5ca5">control</text>
</g>
<!-- n9 -->
<g id="node10" class="node">
<title>n9</title>
<path fill="#dcebfa" stroke="#59636e" d="M1256.88,-741.25C1256.88,-741.25 1178.62,-741.25 1178.62,-741.25 1172.62,-741.25 1166.62,-735.25 1166.62,-729.25 1166.62,-729.25 1166.62,-716.75 1166.62,-716.75 1166.62,-710.75 1172.62,-704.75 1178.62,-704.75 1178.62,-704.75 1256.88,-704.75 1256.88,-704.75 1262.88,-704.75 1268.88,-710.75 1268.88,-716.75 1268.88,-716.75 1268.88,-729.25 1268.88,-729.25 1268.88,-735.25 1262.88,-741.25 1256.88,-741.25"/>
<text xml:space="preserve" text-anchor="middle" x="1217.75" y="-727.75" font-family="DejaVu Sans" font-size="10.00">9: pto.tmov</text>
<text xml:space="preserve" text-anchor="middle" x="1217.75" y="-713.5" font-family="DejaVu Sans" font-size="10.00">PIPE_FIX / transfer</text>
</g>
<!-- n0&#45;&gt;n9 -->
<g id="edge7" class="edge">
<title>n0&#45;&gt;n9</title>
<path fill="none" stroke="#6b5ca5" d="M62.46,-822.72C79.45,-880.62 139.94,-1053 258.25,-1053 258.25,-1053 258.25,-1053 783,-1053 943.29,-1053 1014.55,-1073.27 1132.75,-965 1195.71,-907.33 1211.48,-800.07 1215.43,-750.02"/>
<polygon fill="#6b5ca5" stroke="#6b5ca5" points="1217.86,-750.31 1215.91,-743.16 1212.98,-749.97 1217.86,-750.31"/>
<text xml:space="preserve" text-anchor="middle" x="546.12" y="-1057.4" font-family="DejaVu Sans" font-size="8.00" fill="#6b5ca5">control</text>
</g>
<!-- n1 -->
<g id="node2" class="node">
<title>n1</title>
<path fill="#dcebfa" stroke="#59636e" d="M100.75,-246.25C100.75,-246.25 12,-246.25 12,-246.25 6,-246.25 0,-240.25 0,-234.25 0,-234.25 0,-221.75 0,-221.75 0,-215.75 6,-209.75 12,-209.75 12,-209.75 100.75,-209.75 100.75,-209.75 106.75,-209.75 112.75,-215.75 112.75,-221.75 112.75,-221.75 112.75,-234.25 112.75,-234.25 112.75,-240.25 106.75,-246.25 100.75,-246.25"/>
<text xml:space="preserve" text-anchor="middle" x="56.38" y="-232.75" font-family="DejaVu Sans" font-size="10.00">1: pto.tmov</text>
<text xml:space="preserve" text-anchor="middle" x="56.38" y="-218.5" font-family="DejaVu Sans" font-size="10.00">PIPE_MTE1 / transfer</text>
</g>
<!-- n1&#45;&gt;n2 -->
<g id="edge8" class="edge">
<title>n1&#45;&gt;n2</title>
<path fill="none" stroke="#2e7d32" d="M68.17,-246.39C101.76,-303.57 204.43,-478.36 243.21,-544.39"/>
<polygon fill="#2e7d32" stroke="#2e7d32" points="240.97,-545.42 246.63,-550.22 245.2,-542.94 240.97,-545.42"/>
<text xml:space="preserve" text-anchor="middle" x="161" y="-444.09" font-family="DejaVu Sans" font-size="8.00" fill="#2e7d32">memory&#45;raw</text>
</g>
<!-- n4 -->
<g id="node5" class="node">
<title>n4</title>
<path fill="#dcebfa" stroke="#59636e" d="M496,-389.25C496,-389.25 417.75,-389.25 417.75,-389.25 411.75,-389.25 405.75,-383.25 405.75,-377.25 405.75,-377.25 405.75,-364.75 405.75,-364.75 405.75,-358.75 411.75,-352.75 417.75,-352.75 417.75,-352.75 496,-352.75 496,-352.75 502,-352.75 508,-358.75 508,-364.75 508,-364.75 508,-377.25 508,-377.25 508,-383.25 502,-389.25 496,-389.25"/>
<text xml:space="preserve" text-anchor="middle" x="456.88" y="-375.75" font-family="DejaVu Sans" font-size="10.00">4: pto.tmov</text>
<text xml:space="preserve" text-anchor="middle" x="456.88" y="-361.5" font-family="DejaVu Sans" font-size="10.00">PIPE_FIX / transfer</text>
</g>
<!-- n1&#45;&gt;n4 -->
<g id="edge9" class="edge">
<title>n1&#45;&gt;n4</title>
<path fill="none" stroke="#b26a00" d="M112.96,-233.98C179.59,-242.86 293.23,-263.52 380.75,-308 399.96,-317.76 418.55,-333.28 432.42,-346.47"/>
<polygon fill="#b26a00" stroke="#b26a00" points="430.64,-348.16 437.37,-351.28 434.06,-344.64 430.64,-348.16"/>
<text xml:space="preserve" text-anchor="middle" x="259.25" y="-281.53" font-family="DejaVu Sans" font-size="8.00" fill="#b26a00">memory&#45;war</text>
</g>
<!-- n1&#45;&gt;n5 -->
<g id="edge10" class="edge">
<title>n1&#45;&gt;n5</title>
<path fill="none" stroke="#6b5ca5" d="M100.13,-246.69C182.24,-282.73 356.09,-359.82 380.75,-377 393.64,-385.98 393.95,-391.63 405.75,-402 459.38,-449.11 470.19,-466.08 533,-500 546.38,-507.23 561.45,-513.47 575.96,-518.67"/>
<polygon fill="#6b5ca5" stroke="#6b5ca5" points="575.1,-520.96 582.51,-520.95 576.71,-516.34 575.1,-520.96"/>
<text xml:space="preserve" text-anchor="middle" x="357.5" y="-381.4" font-family="DejaVu Sans" font-size="8.00" fill="#6b5ca5">control</text>
</g>
<!-- n1&#45;&gt;n6 -->
<g id="edge11" class="edge">
<title>n1&#45;&gt;n6</title>
<path fill="none" stroke="#6b5ca5" d="M66.95,-209.39C91.82,-163.95 163.2,-51 258.25,-51 258.25,-51 258.25,-51 641.62,-51 860.94,-51 961.26,37.71 1132.75,-99 1201.38,-153.72 1214.24,-267.13 1216.44,-319.02"/>
<polygon fill="#6b5ca5" stroke="#6b5ca5" points="1213.99,-318.96 1216.67,-325.88 1218.88,-318.8 1213.99,-318.96"/>
<text xml:space="preserve" text-anchor="middle" x="546.12" y="-55.4" font-family="DejaVu Sans" font-size="8.00" fill="#6b5ca5">control</text>
</g>
<!-- n1&#45;&gt;n7 -->
<g id="edge12" class="edge">
<title>n1&#45;&gt;n7</title>
<path fill="none" stroke="#6b5ca5" d="M109.35,-209.29C227.87,-170.27 521.39,-94.68 697,-232 732.41,-259.69 691.13,-297.32 722,-330 760.42,-370.67 797.49,-334.1 842,-368 877.81,-395.27 902.84,-442.41 915.9,-471.8"/>
<polygon fill="#6b5ca5" stroke="#6b5ca5" points="913.64,-472.75 918.66,-478.2 918.14,-470.81 913.64,-472.75"/>
<text xml:space="preserve" text-anchor="middle" x="456.88" y="-162.21" font-family="DejaVu Sans" font-size="8.00" fill="#6b5ca5">control</text>
</g>
<!-- n1&#45;&gt;n8 -->
<g id="edge13" class="edge">
<title>n1&#45;&gt;n8</title>
<path fill="none" stroke="#6b5ca5" d="M63.5,-209.34C82.66,-154.89 146.94,0 258.25,0 258.25,0 258.25,0 1218.75,0 1417.12,0 1480.5,-321.1 1495.03,-417.16"/>
<polygon fill="#6b5ca5" stroke="#6b5ca5" points="1492.59,-417.42 1496.03,-423.99 1497.44,-416.71 1492.59,-417.42"/>
<text xml:space="preserve" text-anchor="middle" x="640.62" y="-4.4" font-family="DejaVu Sans" font-size="8.00" fill="#6b5ca5">control</text>
</g>
<!-- n1&#45;&gt;n9 -->
<g id="edge14" class="edge">
<title>n1&#45;&gt;n9</title>
<path fill="none" stroke="#6b5ca5" d="M57.38,-246.67C58.05,-311.43 65.82,-531.32 137.75,-693 158.66,-739.99 167.03,-754.63 209.25,-784 306.07,-851.35 604.5,-910.82 722,-921 775.13,-925.6 789.06,-927.44 842,-921 975.77,-904.72 1023.84,-914.36 1132.75,-835 1164.08,-812.17 1188.98,-774.31 1203.3,-749.01"/>
<polygon fill="#6b5ca5" stroke="#6b5ca5" points="1205.42,-750.23 1206.66,-742.92 1201.13,-747.86 1205.42,-750.23"/>
<text xml:space="preserve" text-anchor="middle" x="546.12" y="-900.32" font-family="DejaVu Sans" font-size="8.00" fill="#6b5ca5">control</text>
</g>
<!-- n2&#45;&gt;n3 -->
<g id="edge15" class="edge">
<title>n2&#45;&gt;n3</title>
<path fill="none" stroke="#2e7d32" d="M290.37,-588.62C315,-604.06 350.56,-626.82 380.75,-648 395.84,-658.59 412.18,-670.88 425.76,-681.34"/>
<polygon fill="#2e7d32" stroke="#2e7d32" points="423.96,-683.04 430.99,-685.39 426.96,-679.17 423.96,-683.04"/>
<text xml:space="preserve" text-anchor="middle" x="357.5" y="-652.4" font-family="DejaVu Sans" font-size="8.00" fill="#2e7d32">memory&#45;raw</text>
</g>
<!-- n2&#45;&gt;n4 -->
<g id="edge16" class="edge">
<title>n2&#45;&gt;n4</title>
<path fill="none" stroke="#2e7d32" d="M265.26,-551.51C274.32,-521.32 296.09,-461.15 334.25,-425 351.95,-408.23 375.73,-396.11 397.56,-387.66"/>
<polygon fill="#2e7d32" stroke="#2e7d32" points="398.38,-389.97 404.09,-385.23 396.67,-385.37 398.38,-389.97"/>
<text xml:space="preserve" text-anchor="middle" x="357.5" y="-429.4" font-family="DejaVu Sans" font-size="8.00" fill="#2e7d32">memory&#45;raw</text>
</g>
<!-- n2&#45;&gt;n5 -->
<g id="edge17" class="edge">
<title>n2&#45;&gt;n5</title>
<path fill="none" stroke="#6b5ca5" d="M309.46,-565.72C377.51,-559.8 500.43,-549.11 575.57,-542.57"/>
<polygon fill="#6b5ca5" stroke="#6b5ca5" points="575.77,-545.01 582.53,-541.97 575.34,-540.13 575.77,-545.01"/>
<text xml:space="preserve" text-anchor="middle" x="456.88" y="-561.72" font-family="DejaVu Sans" font-size="8.00" fill="#6b5ca5">control</text>
</g>
<!-- n2&#45;&gt;n6 -->
<g id="edge18" class="edge">
<title>n2&#45;&gt;n6</title>
<path fill="none" stroke="#6b5ca5" d="M260.14,-551.28C261.02,-507.54 269.87,-398.43 334.25,-347 582.25,-148.9 1006.8,-270.77 1159.74,-324.47"/>
<polygon fill="#6b5ca5" stroke="#6b5ca5" points="1158.84,-326.75 1166.26,-326.78 1160.48,-322.13 1158.84,-326.75"/>
<text xml:space="preserve" text-anchor="middle" x="640.62" y="-250.22" font-family="DejaVu Sans" font-size="8.00" fill="#6b5ca5">control</text>
</g>
<!-- n2&#45;&gt;n7 -->
<g id="edge19" class="edge">
<title>n2&#45;&gt;n7</title>
<path fill="none" stroke="#6b5ca5" d="M309.57,-559.17C317.81,-557.41 326.27,-555.63 334.25,-554 445.11,-531.38 471.83,-518.76 584.25,-506 645.12,-499.09 660.76,-502.56 722,-501 771.51,-499.74 827.79,-498.96 868.73,-498.51"/>
<polygon fill="#6b5ca5" stroke="#6b5ca5" points="868.74,-500.96 875.71,-498.44 868.69,-496.06 868.74,-500.96"/>
<text xml:space="preserve" text-anchor="middle" x="546.12" y="-516.91" font-family="DejaVu Sans" font-size="8.00" fill="#6b5ca5">control</text>
</g>
<!-- n2&#45;&gt;n8 -->
<g id="edge20" class="edge">
<title>n2&#45;&gt;n8</title>
<path fill="none" stroke="#6b5ca5" d="M265.19,-588.51C274.59,-621.31 297.47,-690.72 334.25,-739 359.05,-771.55 370.95,-775.48 405.75,-797 628.26,-934.58 727.1,-907.4 987.75,-885 1194.39,-867.24 1307.09,-889.65 1423.5,-718 1477.02,-639.08 1492.55,-523.11 1496.94,-471.04"/>
<polygon fill="#6b5ca5" stroke="#6b5ca5" points="1499.38,-471.35 1497.48,-464.18 1494.49,-470.97 1499.38,-471.35"/>
<text xml:space="preserve" text-anchor="middle" x="782" y="-907.73" font-family="DejaVu Sans" font-size="8.00" fill="#6b5ca5">control</text>
</g>
<!-- n2&#45;&gt;n9 -->
<g id="edge21" class="edge">
<title>n2&#45;&gt;n9</title>
<path fill="none" stroke="#6b5ca5" d="M266.91,-588.5C277.52,-615.81 300.56,-667.22 334.25,-700 406.01,-769.81 437.9,-774.72 533,-806 726.1,-869.52 791.38,-907.54 987.75,-855 1066.48,-833.93 1146.2,-778.56 1187.63,-746.62"/>
<polygon fill="#6b5ca5" stroke="#6b5ca5" points="1188.98,-748.68 1193,-742.45 1185.97,-744.82 1188.98,-748.68"/>
<text xml:space="preserve" text-anchor="middle" x="640.62" y="-863.93" font-family="DejaVu Sans" font-size="8.00" fill="#6b5ca5">control</text>
</g>
<!-- n3&#45;&gt;n5 -->
<g id="edge22" class="edge">
<title>n3&#45;&gt;n5</title>
<path fill="none" stroke="#6b5ca5" d="M500.61,-686.28C520.08,-676.29 542.47,-662.62 559.25,-646 574.69,-630.72 571.74,-621.76 584.25,-604 594.46,-589.5 606.97,-574.2 617.51,-561.88"/>
<polygon fill="#6b5ca5" stroke="#6b5ca5" points="619.11,-563.78 621.83,-556.88 615.4,-560.57 619.11,-563.78"/>
<text xml:space="preserve" text-anchor="middle" x="546.12" y="-670.62" font-family="DejaVu Sans" font-size="8.00" fill="#6b5ca5">control</text>
</g>
<!-- n3&#45;&gt;n6 -->
<g id="edge23" class="edge">
<title>n3&#45;&gt;n6</title>
<path fill="none" stroke="#6b5ca5" d="M464.65,-686.33C479.83,-647.07 520.36,-555.52 584.25,-506 757.31,-371.87 1029.66,-349.07 1152.67,-345.95"/>
<polygon fill="#6b5ca5" stroke="#6b5ca5" points="1152.45,-348.41 1159.4,-345.8 1152.34,-343.51 1152.45,-348.41"/>
<text xml:space="preserve" text-anchor="middle" x="782" y="-430.65" font-family="DejaVu Sans" font-size="8.00" fill="#6b5ca5">control</text>
</g>
<!-- n3&#45;&gt;n7 -->
<g id="edge24" class="edge">
<title>n3&#45;&gt;n7</title>
<path fill="none" stroke="#6b5ca5" d="M508.4,-696.6C524.8,-693.33 542.96,-689.12 559.25,-684 689.66,-643.04 724.09,-632.15 842,-563 862.1,-551.21 882.85,-535.28 898.75,-522.14"/>
<polygon fill="#6b5ca5" stroke="#6b5ca5" points="900.29,-524.05 904.09,-517.67 897.14,-520.29 900.29,-524.05"/>
<text xml:space="preserve" text-anchor="middle" x="640.62" y="-679.35" font-family="DejaVu Sans" font-size="8.00" fill="#6b5ca5">control</text>
</g>
<!-- n3&#45;&gt;n8 -->
<g id="edge25" class="edge">
<title>n3&#45;&gt;n8</title>
<path fill="none" stroke="#6b5ca5" d="M493.17,-723.69C505.54,-729.76 519.67,-736.17 533,-741 555.09,-749.01 561.09,-750 584.25,-754 888.25,-806.58 1006.61,-931.19 1277.75,-784 1404.71,-715.08 1470.06,-538.16 1490.99,-470.69"/>
<polygon fill="#6b5ca5" stroke="#6b5ca5" points="1493.3,-471.51 1492.99,-464.1 1488.61,-470.08 1493.3,-471.51"/>
<text xml:space="preserve" text-anchor="middle" x="927.38" y="-854.88" font-family="DejaVu Sans" font-size="8.00" fill="#6b5ca5">control</text>
</g>
<!-- n3&#45;&gt;n9 -->
<g id="edge26" class="edge">
<title>n3&#45;&gt;n9</title>
<path fill="none" stroke="#6b5ca5" d="M508.25,-714.94C561.21,-724.84 647.08,-739.36 722,-745 796.99,-750.65 1054.64,-751.13 1132.75,-742 1141.08,-741.03 1149.79,-739.57 1158.31,-737.88"/>
<polygon fill="#6b5ca5" stroke="#6b5ca5" points="1158.57,-740.33 1164.93,-736.51 1157.58,-735.53 1158.57,-740.33"/>
<text xml:space="preserve" text-anchor="middle" x="782" y="-753.11" font-family="DejaVu Sans" font-size="8.00" fill="#6b5ca5">control</text>
</g>
<!-- n4&#45;&gt;n5 -->
<g id="edge27" class="edge">
<title>n4&#45;&gt;n5</title>
<path fill="none" stroke="#6b5ca5" d="M508.36,-385.1C525.75,-391.65 544.54,-400.75 559.25,-413 591.55,-439.89 615.43,-483.15 628.43,-510.81"/>
<polygon fill="#6b5ca5" stroke="#6b5ca5" points="626.19,-511.8 631.33,-517.14 630.64,-509.75 626.19,-511.8"/>
<text xml:space="preserve" text-anchor="middle" x="546.12" y="-417.4" font-family="DejaVu Sans" font-size="8.00" fill="#6b5ca5">control</text>
</g>
<!-- n4&#45;&gt;n6 -->
<g id="edge28" class="edge">
<title>n4&#45;&gt;n6</title>
<path fill="none" stroke="#6b5ca5" d="M508.36,-365.3C516.59,-364.47 525.03,-363.67 533,-363 745.87,-345.24 799.24,-340.45 1012.75,-334 1066.06,-332.39 1079.55,-330.22 1132.75,-334 1139.4,-334.47 1146.33,-335.15 1153.23,-335.95"/>
<polygon fill="#6b5ca5" stroke="#6b5ca5" points="1152.54,-338.34 1159.79,-336.76 1153.14,-333.48 1152.54,-338.34"/>
<text xml:space="preserve" text-anchor="middle" x="782" y="-352.06" font-family="DejaVu Sans" font-size="8.00" fill="#6b5ca5">control</text>
</g>
<!-- n4&#45;&gt;n7 -->
<g id="edge29" class="edge">
<title>n4&#45;&gt;n7</title>
<path fill="none" stroke="#6b5ca5" d="M508.24,-369.58C598.81,-367.81 785.05,-367.98 842,-397 874.29,-413.45 898.95,-448.28 913.05,-472.41"/>
<polygon fill="#6b5ca5" stroke="#6b5ca5" points="910.75,-473.32 916.33,-478.2 915.01,-470.9 910.75,-473.32"/>
<text xml:space="preserve" text-anchor="middle" x="640.62" y="-376.34" font-family="DejaVu Sans" font-size="8.00" fill="#6b5ca5">control</text>
</g>
<!-- n4&#45;&gt;n8 -->
<g id="edge30" class="edge">
<title>n4&#45;&gt;n8</title>
<path fill="none" stroke="#6b5ca5" d="M488.96,-352.31C584.47,-297.19 882.41,-142.46 1132.75,-197 1271.59,-227.25 1315.6,-237.53 1423.5,-330 1452.21,-354.6 1474.3,-392.8 1486.89,-418.1"/>
<polygon fill="#6b5ca5" stroke="#6b5ca5" points="1484.56,-418.92 1489.82,-424.15 1488.97,-416.78 1484.56,-418.92"/>
<text xml:space="preserve" text-anchor="middle" x="927.38" y="-206.42" font-family="DejaVu Sans" font-size="8.00" fill="#6b5ca5">control</text>
</g>
<!-- n4&#45;&gt;n9 -->
<g id="edge31" class="edge">
<title>n4&#45;&gt;n9</title>
<path fill="none" stroke="#6b5ca5" d="M463.05,-389.51C480.03,-448.89 535.75,-632.75 584.25,-668 674.64,-733.69 1018.61,-729.83 1157.78,-725.38"/>
<polygon fill="#6b5ca5" stroke="#6b5ca5" points="1157.82,-727.83 1164.73,-725.15 1157.66,-722.93 1157.82,-727.83"/>
<text xml:space="preserve" text-anchor="middle" x="782" y="-726.36" font-family="DejaVu Sans" font-size="8.00" fill="#6b5ca5">control</text>
</g>
<!-- n5&#45;&gt;n5 -->
<g id="edge32" class="edge">
<title>n5&#45;&gt;n5</title>
<path fill="none" stroke="#9c2f45" stroke-dasharray="5,2" d="M624.47,-555.67C619.92,-568.13 625.31,-580.25 640.62,-580.25 652.47,-580.25 658.38,-573 658.34,-563.95"/>
<polygon fill="#9c2f45" stroke="#9c2f45" points="660.77,-563.58 657.06,-557.16 655.95,-564.49 660.77,-563.58"/>
<text xml:space="preserve" text-anchor="middle" x="640.62" y="-584.65" font-family="DejaVu Sans" font-size="8.00" fill="#9c2f45">memory&#45;waw, d=1, loop&#45;depth=1</text>
</g>
<!-- n5&#45;&gt;n7 -->
<g id="edge33" class="edge">
<title>n5&#45;&gt;n7</title>
<path fill="none" stroke="#2e7d32" d="M697.17,-543.35C737.78,-546.46 793.92,-547.57 842,-537 857.43,-533.61 873.39,-527.11 887.23,-520.37"/>
<polygon fill="#2e7d32" stroke="#2e7d32" points="888.17,-522.64 893.32,-517.31 885.97,-518.26 888.17,-522.64"/>
<text xml:space="preserve" text-anchor="middle" x="782" y="-549.9" font-family="DejaVu Sans" font-size="8.00" fill="#2e7d32">memory&#45;raw</text>
</g>
<!-- n5&#45;&gt;n9 -->
<g id="edge34" class="edge">
<title>n5&#45;&gt;n9</title>
<path fill="none" stroke="#b26a00" d="M696.26,-555.72C704.82,-558.35 713.61,-560.88 722,-563 811.99,-585.78 1050.59,-595.79 1132.75,-639 1159.53,-653.08 1183.2,-678.61 1198.53,-697.84"/>
<polygon fill="#b26a00" stroke="#b26a00" points="1196.44,-699.14 1202.67,-703.16 1200.3,-696.13 1196.44,-699.14"/>
<text xml:space="preserve" text-anchor="middle" x="927.38" y="-605.35" font-family="DejaVu Sans" font-size="8.00" fill="#b26a00">memory&#45;war</text>
</g>
<!-- n6&#45;&gt;n6 -->
<g id="edge35" class="edge">
<title>n6&#45;&gt;n6</title>
<path fill="none" stroke="#9c2f45" stroke-dasharray="5,2" d="M1192.96,-364.67C1185.98,-377.13 1194.24,-389.25 1217.75,-389.25 1236.11,-389.25 1245.17,-381.85 1244.93,-372.67"/>
<polygon fill="#9c2f45" stroke="#9c2f45" points="1247.33,-372.13 1242.97,-366.12 1242.63,-373.53 1247.33,-372.13"/>
<text xml:space="preserve" text-anchor="middle" x="1217.75" y="-393.65" font-family="DejaVu Sans" font-size="8.00" fill="#9c2f45">memory&#45;waw, d=1, loop&#45;depth=1</text>
</g>
<!-- n6&#45;&gt;n7 -->
<g id="edge36" class="edge">
<title>n6&#45;&gt;n7</title>
<path fill="none" stroke="#2e7d32" d="M1195.75,-364.58C1179.57,-377.96 1156.1,-395.44 1132.75,-406 1082.85,-428.57 1062.32,-410.72 1012.75,-434 991.15,-444.14 969.77,-460.45 953.93,-474.06"/>
<polygon fill="#2e7d32" stroke="#2e7d32" points="952.72,-471.87 949.07,-478.32 955.95,-475.55 952.72,-471.87"/>
<text xml:space="preserve" text-anchor="middle" x="1072.75" y="-438.4" font-family="DejaVu Sans" font-size="8.00" fill="#2e7d32">memory&#45;raw</text>
</g>
<!-- n6&#45;&gt;n8 -->
<g id="edge37" class="edge">
<title>n6&#45;&gt;n8</title>
<path fill="none" stroke="#b26a00" d="M1274.26,-338.03C1317.2,-334.44 1376.98,-335.2 1423.5,-358 1449.98,-370.98 1471.05,-397.9 1484.06,-418.19"/>
<polygon fill="#b26a00" stroke="#b26a00" points="1481.91,-419.38 1487.68,-424.04 1486.08,-416.8 1481.91,-419.38"/>
<text xml:space="preserve" text-anchor="middle" x="1363.12" y="-362.4" font-family="DejaVu Sans" font-size="8.00" fill="#b26a00">memory&#45;war</text>
</g>
<!-- n7&#45;&gt;n5 -->
<g id="edge38" class="edge">
<title>n7&#45;&gt;n5</title>
<path fill="none" stroke="#b26a00" stroke-dasharray="5,2" d="M877.11,-502.84C835.63,-507.14 774.8,-513.98 722,-522 716.63,-522.82 711.06,-523.72 705.48,-524.68"/>
<polygon fill="#b26a00" stroke="#b26a00" points="705.28,-522.22 698.81,-525.84 706.13,-527.05 705.28,-522.22"/>
<text xml:space="preserve" text-anchor="middle" x="782" y="-526.4" font-family="DejaVu Sans" font-size="8.00" fill="#b26a00">memory&#45;war, d=1, loop&#45;depth=1</text>
</g>
<!-- n7&#45;&gt;n6 -->
<g id="edge39" class="edge">
<title>n7&#45;&gt;n6</title>
<path fill="none" stroke="#b26a00" stroke-dasharray="5,2" d="M941.76,-479.69C963.11,-450.68 1003.43,-396.84 1012.75,-391 1014.29,-390.04 1093.57,-372.7 1152.82,-359.84"/>
<polygon fill="#b26a00" stroke="#b26a00" points="1153.24,-362.25 1159.56,-358.38 1152.2,-357.47 1153.24,-362.25"/>
<text xml:space="preserve" text-anchor="middle" x="1072.75" y="-395.4" font-family="DejaVu Sans" font-size="8.00" fill="#b26a00">memory&#45;war, d=1, loop&#45;depth=1</text>
</g>
<!-- n7&#45;&gt;n7 -->
<g id="edge40" class="edge">
<title>n7&#45;&gt;n7</title>
<path fill="none" stroke="#9c2f45" stroke-dasharray="5,2" d="M902.52,-516.67C895.52,-529.13 903.81,-541.25 927.38,-541.25 945.79,-541.25 954.87,-533.85 954.63,-524.67"/>
<polygon fill="#9c2f45" stroke="#9c2f45" points="957.02,-524.12 952.66,-518.12 952.33,-525.53 957.02,-524.12"/>
<text xml:space="preserve" text-anchor="middle" x="927.38" y="-545.65" font-family="DejaVu Sans" font-size="8.00" fill="#9c2f45">memory&#45;waw, d=1, loop&#45;depth=1</text>
</g>
<!-- n7&#45;&gt;n8 -->
<g id="edge41" class="edge">
<title>n7&#45;&gt;n8</title>
<path fill="none" stroke="#2e7d32" d="M977.55,-497.43C1066.91,-495.74 1261.65,-489.1 1423.5,-463 1428.94,-462.12 1434.57,-461.04 1440.18,-459.84"/>
<polygon fill="#2e7d32" stroke="#2e7d32" points="1440.59,-462.26 1446.89,-458.33 1439.52,-457.47 1440.59,-462.26"/>
<text xml:space="preserve" text-anchor="middle" x="1217.75" y="-494.47" font-family="DejaVu Sans" font-size="8.00" fill="#2e7d32">memory&#45;raw</text>
</g>
<!-- n7&#45;&gt;n9 -->
<g id="edge42" class="edge">
<title>n7&#45;&gt;n9</title>
<path fill="none" stroke="#2e7d32" d="M977.67,-508.29C1037.16,-520.8 1129.68,-540.54 1132.75,-543 1181.64,-582.17 1203.44,-656.4 1211.98,-696.19"/>
<polygon fill="#2e7d32" stroke="#2e7d32" points="1209.55,-696.52 1213.35,-702.89 1214.35,-695.54 1209.55,-696.52"/>
<text xml:space="preserve" text-anchor="middle" x="1072.75" y="-547.4" font-family="DejaVu Sans" font-size="8.00" fill="#2e7d32">memory&#45;raw</text>
</g>
<!-- n8&#45;&gt;n6 -->
<g id="edge43" class="edge">
<title>n8&#45;&gt;n6</title>
<path fill="none" stroke="#2e7d32" stroke-dasharray="5,2" d="M1455.15,-425.41C1444.83,-421.18 1433.82,-416.81 1423.5,-413 1397.36,-403.34 1332.26,-382.23 1282.43,-366.26"/>
<polygon fill="#2e7d32" stroke="#2e7d32" points="1283.43,-364.01 1276.01,-364.21 1281.93,-368.67 1283.43,-364.01"/>
<text xml:space="preserve" text-anchor="middle" x="1363.12" y="-417.4" font-family="DejaVu Sans" font-size="8.00" fill="#2e7d32">memory&#45;raw, d=1, loop&#45;depth=1</text>
</g>
<!-- n8&#45;&gt;n7 -->
<g id="edge44" class="edge">
<title>n8&#45;&gt;n7</title>
<path fill="none" stroke="#b26a00" stroke-dasharray="5,2" d="M1448.26,-445.56C1381.65,-447.94 1260.65,-453.38 1157.75,-464 1098.94,-470.07 1032.12,-480.37 985.83,-488.04"/>
<polygon fill="#b26a00" stroke="#b26a00" points="985.43,-485.62 978.93,-489.19 986.24,-490.46 985.43,-485.62"/>
<text xml:space="preserve" text-anchor="middle" x="1217.75" y="-468.4" font-family="DejaVu Sans" font-size="8.00" fill="#b26a00">memory&#45;war, d=1, loop&#45;depth=1</text>
</g>
<!-- n8&#45;&gt;n8 -->
<g id="edge45" class="edge">
<title>n8&#45;&gt;n8</title>
<path fill="none" stroke="#9c2f45" stroke-dasharray="5,2" d="M1476.29,-462.67C1469.72,-475.13 1477.5,-487.25 1499.62,-487.25 1516.91,-487.25 1525.44,-479.85 1525.21,-470.67"/>
<polygon fill="#9c2f45" stroke="#9c2f45" points="1527.63,-470.2 1523.37,-464.13 1522.91,-471.53 1527.63,-470.2"/>
<text xml:space="preserve" text-anchor="middle" x="1499.62" y="-491.65" font-family="DejaVu Sans" font-size="8.00" fill="#9c2f45">memory&#45;waw, d=1, loop&#45;depth=1</text>
</g>
<!-- n9&#45;&gt;n5 -->
<g id="edge46" class="edge">
<title>n9&#45;&gt;n5</title>
<path fill="none" stroke="#2e7d32" stroke-dasharray="5,2" d="M1166.33,-710.55C1048.7,-681.37 762.98,-609.6 722,-591 704.24,-582.94 686.07,-571.09 671.51,-560.55"/>
<polygon fill="#2e7d32" stroke="#2e7d32" points="672.97,-558.58 665.89,-556.4 670.06,-562.53 672.97,-558.58"/>
<text xml:space="preserve" text-anchor="middle" x="927.38" y="-668.21" font-family="DejaVu Sans" font-size="8.00" fill="#2e7d32">memory&#45;raw, d=1, loop&#45;depth=1</text>
</g>
<!-- n9&#45;&gt;n7 -->
<g id="edge47" class="edge">
<title>n9&#45;&gt;n7</title>
<path fill="none" stroke="#b26a00" stroke-dasharray="5,2" d="M1210.82,-704.55C1200.2,-674.58 1175.01,-615.59 1132.75,-585 1088.39,-552.88 1062.76,-579.32 1012.75,-557 992.47,-547.95 972,-533.79 956.3,-521.6"/>
<polygon fill="#b26a00" stroke="#b26a00" points="958.08,-519.89 951.07,-517.46 955.04,-523.73 958.08,-519.89"/>
<text xml:space="preserve" text-anchor="middle" x="1072.75" y="-589.4" font-family="DejaVu Sans" font-size="8.00" fill="#b26a00">memory&#45;war, d=1, loop&#45;depth=1</text>
</g>
<!-- n9&#45;&gt;n9 -->
<g id="edge48" class="edge">
<title>n9&#45;&gt;n9</title>
<path fill="none" stroke="#9c2f45" stroke-dasharray="5,2" d="M1192.96,-741.67C1185.98,-754.13 1194.24,-766.25 1217.75,-766.25 1236.11,-766.25 1245.17,-758.85 1244.93,-749.67"/>
<polygon fill="#9c2f45" stroke="#9c2f45" points="1247.33,-749.13 1242.97,-743.12 1242.63,-750.53 1247.33,-749.13"/>
<text xml:space="preserve" text-anchor="middle" x="1217.75" y="-770.65" font-family="DejaVu Sans" font-size="8.00" fill="#9c2f45">memory&#45;waw, d=1, loop&#45;depth=1</text>
</g>
</g>
</svg>
